<svg width="30" height="30" viewBox="0 0 30 30" fill="none" xmlns="http://www.w3.org/2000/svg">
<g id="&#235;&#182;&#129;&#235;&#167;&#136;&#237;&#129;&#172;">
<path id="Line 13" d="M15.7833 20.5224C15.5936 20.2829 15.3049 20.1432 14.9993 20.1432C14.6938 20.1432 14.4051 20.2829 14.2154 20.5224C12.7326 22.3949 11.67 23.7346 10.8146 24.6104C9.91268 25.5338 9.48508 25.6732 9.28829 25.6678C8.94364 25.6584 8.61037 25.5425 8.33435 25.3359C8.17675 25.2179 7.92807 24.8431 7.79426 23.5593C7.66735 22.3417 7.66602 20.6317 7.66602 18.2433L7.66602 8.7804C7.66602 7.07539 7.66814 5.89724 7.78732 5.01077C7.90264 4.15307 8.11079 3.71964 8.41491 3.41552C8.71903 3.1114 9.15246 2.90325 10.0102 2.78793C10.8966 2.66875 12.0748 2.66663 13.7798 2.66663H16.2189C17.9239 2.66663 19.1021 2.66875 19.9885 2.78793C20.8462 2.90325 21.2797 3.1114 21.5838 3.41552C21.8879 3.71965 22.0961 4.15307 22.2114 5.01077C22.3306 5.89724 22.3327 7.07539 22.3327 8.7804V18.2433C22.3327 20.6317 22.3313 22.3417 22.2044 23.5593C22.0706 24.8431 21.8219 25.2179 21.6643 25.3359C21.3883 25.5425 21.0551 25.6584 20.7104 25.6678C20.5136 25.6732 20.086 25.5338 19.1841 24.6104C18.3287 23.7346 17.2661 22.3949 15.7833 20.5224Z" stroke-width="2" stroke-linecap="round" stroke-linejoin="round"/>
</g>
</svg>
