<svg width="30" height="30" viewBox="0 0 30 30" fill="none" xmlns="http://www.w3.org/2000/svg">
<g id="&#234;&#184;&#176;&#235;&#179;&#184;&#237;&#148;&#132;&#235;&#161;&#156;&#237;&#149;&#132;&#236;&#149;&#132;&#236;&#157;&#180;&#236;&#189;&#152;">
<circle id="Ellipse 5" cx="15" cy="15" r="15" fill="#E2E3E5"/>
<path id="Intersect" fill-rule="evenodd" clip-rule="evenodd" d="M24.7245 26.422C24.2775 25.5232 23.6314 24.7104 22.7845 24.0233C20.9966 22.5729 18.3799 21.7343 15.0009 21.7343C11.6219 21.7343 9.00529 22.5729 7.21738 24.0233C6.3705 24.7104 5.72437 25.5232 5.27734 26.422C5.67863 26.7639 6.09817 27.0851 6.53428 27.3838C6.88594 26.5668 7.43724 25.835 8.19102 25.2235C9.62684 24.0587 11.8631 23.2798 15.0009 23.2798C18.1388 23.2798 20.375 24.0587 21.8109 25.2235C22.5646 25.835 23.1159 26.5668 23.4676 27.3838C23.9037 27.0851 24.3232 26.7639 24.7245 26.422ZM12.134 14.3934C12.134 12.6859 13.4496 11.361 15.0009 11.361C16.5523 11.361 17.8679 12.6859 17.8679 14.3934C17.8679 16.1009 16.5523 17.4258 15.0009 17.4258C13.4496 17.4258 12.134 16.1009 12.134 14.3934ZM15.0009 9.81555C12.532 9.81555 10.5885 11.8979 10.5885 14.3934C10.5885 16.889 12.532 18.9713 15.0009 18.9713C17.4699 18.9713 19.4134 16.889 19.4134 14.3934C19.4134 11.8979 17.4699 9.81555 15.0009 9.81555Z" fill="#BFC0C4"/>
</g>
</svg>
